<svg xmlns="http://www.w3.org/2000/svg" version="1.1" xmlns:xlink="http://www.w3.org/1999/xlink" viewBox="0 0 200 200"><rect width="200" height="200" fill="url('#gradient')"></rect><defs><linearGradient id="gradient" gradientTransform="rotate(45 0.5 0.5)"><stop offset="0%" stop-color="#63c0ee"></stop><stop offset="100%" stop-color="#8fa983"></stop></linearGradient></defs><g><g fill="#f5f8fd" transform="matrix(5.705794947994057,0,0,5.705794947994057,22.090028613672914,142.2252268139356)" stroke="#f7f8fa" stroke-width="0"><path d="M0.51-5.36L0.51-5.36Q0.51-7.87 1.59-9.32Q2.68-10.76 4.62-10.76L4.62-10.76Q6.04-10.76 7.00-9.65L7.00-9.65L7.00-15L10.30-15L10.30 0L7.34 0L7.18-1.13Q6.16 0.20 4.60 0.20L4.60 0.20Q2.71 0.20 1.61-1.25Q0.51-2.70 0.51-5.36ZM3.81-5.76L3.80-5.16Q3.80-2.34 5.44-2.34L5.44-2.34Q6.53-2.34 7.00-3.26L7.00-3.26L7.00-7.29Q6.55-8.22 5.46-8.22L5.46-8.22Q3.94-8.22 3.81-5.76L3.81-5.76ZM15.64-10.57L15.64 0L12.34 0L12.34-10.57L15.64-10.57ZM12.15-13.29L12.15-13.29Q12.15-13.99 12.66-14.44Q13.16-14.89 13.97-14.89Q14.79-14.89 15.29-14.44Q15.80-13.99 15.80-13.29Q15.80-12.59 15.29-12.14Q14.79-11.69 13.97-11.69Q13.16-11.69 12.66-12.14Q12.15-12.59 12.15-13.29ZM21.14-10.57L21.14 0L17.84 0L17.84-10.57L21.14-10.57ZM17.65-13.29L17.65-13.29Q17.65-13.99 18.15-14.44Q18.66-14.89 19.47-14.89Q20.28-14.89 20.79-14.44Q21.30-13.99 21.30-13.29Q21.30-12.59 20.79-12.14Q20.28-11.69 19.47-11.69Q18.66-11.69 18.15-12.14Q17.65-12.59 17.65-13.29ZM26.64-10.57L26.64 0L23.34 0L23.34-10.57L26.64-10.57ZM23.14-13.29L23.14-13.29Q23.14-13.99 23.65-14.44Q24.16-14.89 24.97-14.89Q25.78-14.89 26.29-14.44Q26.80-13.99 26.80-13.29Q26.80-12.59 26.29-12.14Q25.78-11.69 24.97-11.69Q24.16-11.69 23.65-12.14Q23.14-12.59 23.14-13.29Z"></path></g></g></svg>