<?xml version="1.0" encoding="UTF-8"?>
<svg width="79px" height="10px" viewBox="0 0 79 10" version="1.1" xmlns="http://www.w3.org/2000/svg" xmlns:xlink="http://www.w3.org/1999/xlink">
    <!-- Generator: Sketch 48.2 (47327) - http://www.bohemiancoding.com/sketch -->
    <title>monome copy</title>
    <desc>Created with Sketch.</desc>
    <defs></defs>
    <g id="Desktop" stroke="none" stroke-width="1" fill="none" fill-rule="evenodd" transform="translate(-32.000000, -30.000000)">
        <path d="M43.2444354,30.3881172 C41.7402858,30.3881172 40.5846587,31.0301323 39.8509272,32.0573564 C39.263942,30.9934457 38.1266581,30.3881172 36.8242847,30.3881172 C35.5219113,30.3881172 34.5680603,30.8650427 33.9077019,31.6721473 L33.9077019,30.6449232 L32,30.6449232 L32,39.743194 L33.9077019,39.743194 L33.9077019,35.2307452 C33.9077019,33.1946402 34.8615529,32.1490728 36.3290159,32.1490728 C37.5029863,32.1490728 38.3834642,32.9928641 38.3834642,34.3319241 L38.3834642,39.743194 L40.2911661,39.743194 L40.2911661,35.2307452 C40.2911661,33.1946402 41.2633604,32.1490728 42.7491667,32.1490728 C43.9231371,32.1490728 44.8036149,32.9928641 44.8036149,34.3319241 L44.8036149,39.743194 L46.6929735,39.743194 L46.6929735,33.946715 C46.6929735,31.8005503 45.1337941,30.3881172 43.2444354,30.3881172 Z M53.7931363,30.443147 C56.4712563,30.443147 58.6541076,32.3691923 58.6541076,35.1940586 C58.6541076,38.0189249 56.4712563,39.9633134 53.7931363,39.9633134 C51.096673,39.9633134 48.8954785,38.0189249 48.8954785,35.1940586 C48.8954785,32.3691923 51.096673,30.443147 53.7931363,30.443147 Z M53.7931363,38.3124175 C55.3523158,38.3124175 56.8014355,37.0834172 56.8014355,35.1940586 C56.8014355,33.3046999 55.3523158,32.0756997 53.7931363,32.0756997 C52.1972703,32.0756997 50.7664938,33.3046999 50.7664938,35.1940586 C50.7664938,37.0834172 52.1972703,38.3124175 53.7931363,38.3124175 Z M66.1394794,30.3881172 C64.7820761,30.3881172 63.7181654,30.883386 62.9844339,31.7638638 L62.9844339,30.6449232 L61.0767319,30.6449232 L61.0767319,39.743194 L62.9844339,39.743194 L62.9844339,35.5425811 C62.9844339,33.2496701 64.0666879,32.1490728 65.6992405,32.1490728 C67.0016139,32.1490728 67.8637484,33.1396104 67.8637484,34.6254167 L67.8637484,39.743194 L69.7897937,39.743194 L69.7897937,34.2402076 C69.7897937,31.9656399 68.3223306,30.3881172 66.1394794,30.3881172 Z M76.8532698,30.443147 C79.5313899,30.443147 81.7142411,32.3691923 81.7142411,35.1940586 C81.7142411,38.0189249 79.5313899,39.9633134 76.8532698,39.9633134 C74.1568065,39.9633134 71.955612,38.0189249 71.955612,35.1940586 C71.955612,32.3691923 74.1568065,30.443147 76.8532698,30.443147 Z M76.8532698,38.3124175 C78.4124493,38.3124175 79.861569,37.0834172 79.861569,35.1940586 C79.861569,33.3046999 78.4124493,32.0756997 76.8532698,32.0756997 C75.2574038,32.0756997 73.8266273,33.3046999 73.8266273,35.1940586 C73.8266273,37.0834172 75.2574038,38.3124175 76.8532698,38.3124175 Z M95.3813009,30.3881172 C93.8771513,30.3881172 92.7215242,31.0301323 91.9877927,32.0573564 C91.4008075,30.9934457 90.2635236,30.3881172 88.9611502,30.3881172 C87.6587767,30.3881172 86.7049258,30.8650427 86.0445674,31.6721473 L86.0445674,30.6449232 L84.1368655,30.6449232 L84.1368655,39.743194 L86.0445674,39.743194 L86.0445674,35.2307452 C86.0445674,33.1946402 86.9984184,32.1490728 88.4658814,32.1490728 C89.6398518,32.1490728 90.5203296,32.9928641 90.5203296,34.3319241 L90.5203296,39.743194 L92.4280316,39.743194 L92.4280316,35.2307452 C92.4280316,33.1946402 93.4002258,32.1490728 94.8860321,32.1490728 C96.0600026,32.1490728 96.9404804,32.9928641 96.9404804,34.3319241 L96.9404804,39.743194 L98.829839,39.743194 L98.829839,33.946715 C98.829839,31.8005503 97.2706596,30.3881172 95.3813009,30.3881172 Z M110.295704,34.9922824 L110.295704,35.6526408 L102.921703,35.6526408 C103.105135,37.3402233 104.334136,38.3491041 105.673196,38.3491041 C106.682077,38.3491041 107.709301,38.0556115 108.351316,36.7715813 L110.057242,37.1384471 C109.305167,39.046149 107.690957,40 105.673196,40 C103.196852,40 101.032344,38.0922981 101.032344,35.2124019 C101.032344,32.3141624 103.178509,30.3881172 105.746569,30.3881172 C108.186226,30.3881172 110.203988,32.2591325 110.295704,34.9922824 Z M105.746569,32.0756997 C104.554255,32.0756997 103.270225,32.8277745 102.976732,34.2952375 L108.332972,34.2952375 C108.03948,32.8094312 106.993912,32.0756997 105.746569,32.0756997 Z" id="monome-copy" fill="#443E3C"></path>
    </g>
</svg>